<svg xmlns="http://www.w3.org/2000/svg" width="256" height="256" style="background:0 0;background-color:transparent;color-scheme:light dark" viewBox="-0.5 -0.5 256 256"><rect width="256" height="256" fill="#242938" pointer-events="all" rx="58.88" ry="58.88" style="fill:#f4f2ed;fill-opacity:1"/><path d="M112.532-5.56C94.857 25.054 100.304 61.28 124.7 75.366l64-110.852c-24.396-14.085-58.493-.688-76.168 29.926zm2.955 32.883a6.5 6.5 0 0 1 8.88-2.38 6.5 6.5 0 0 1 2.378 8.88 6.5 6.5 0 0 1-8.879 2.379 6.5 6.5 0 0 1-2.38-8.88zm26-45.034a6.5 6.5 0 0 1 8.88-2.379 6.5 6.5 0 0 1 2.378 8.88 6.5 6.5 0 0 1-8.879 2.378 6.5 6.5 0 0 1-2.38-8.879z" style="fill:#8ecd00" transform="rotate(60 94 23)"/><path d="M83.5 20.5h21c1.385 0 2.5 1.115 2.5 2.5s-1.115 2.5-2.5 2.5h-21A2.495 2.495 0 0 1 81 23c0-1.385 1.115-2.5 2.5-2.5zM131.318-25.302l-8.875-19.032a2.495 2.495 0 0 1 1.209-3.323 2.495 2.495 0 0 1 3.322 1.21l8.875 19.032a2.495 2.495 0 0 1-1.209 3.322 2.495 2.495 0 0 1-3.322-1.209zM195.554-31.357 131.702 79.237c.458.377.954.722 1.485 1.029l85.218 49.2a10.776 10.776 0 0 0 14.752-3.954l53.2-92.144a10.776 10.776 0 0 0-3.952-14.753l-85.218-49.2a10.972 10.972 0 0 0-1.633-.772zM175.498 146.84l-47.631-27.5a14.967 14.967 0 0 1-5.49-20.49 14.967 14.967 0 0 1 20.49-5.49l47.631 27.5a14.967 14.967 0 0 1 5.49 20.49 14.967 14.967 0 0 1-20.49 5.49zM260.998-1.25l-47.631-27.5a14.967 14.967 0 0 1-5.49-20.49 14.967 14.967 0 0 1 20.49-5.49l47.631 27.5a14.967 14.967 0 0 1 5.49 20.49 14.967 14.967 0 0 1-20.49 5.49z" style="fill:#8ecd00" transform="rotate(60 94 23)"/><path d="m265.604 131.313-25.98-15a14.967 14.967 0 0 1-5.491-20.49 14.967 14.967 0 0 1 20.49-5.49l25.981 15a14.967 14.967 0 0 1 5.49 20.49 14.967 14.967 0 0 1-20.49 5.49zM291.604 86.28l-25.98-15a14.967 14.967 0 0 1-5.491-20.49 14.967 14.967 0 0 1 20.49-5.49l25.981 15a14.967 14.967 0 0 1 5.49 20.49 14.967 14.967 0 0 1-20.49 5.49z" style="fill:#8ecd00" transform="rotate(60 94 23)"/></svg>