<svg xmlns="http://www.w3.org/2000/svg" width="256" height="256" style="background:0 0;background-color:transparent;color-scheme:light dark" viewBox="-0.5 -0.5 256 256"><rect width="256" height="256" fill="#242938" pointer-events="all" rx="58.88" ry="58.88" style="fill:light-dark(#242938,#242938)"/><path fill="#8ecd00" d="M64 24.77c0 28.17 28.65 51 64 51s64-22.83 64-51Z" pointer-events="all" style="fill:light-dark(#8ecd00,#8ecd00)" transform="rotate(-180 128 50.27)"/><rect width="128" height="120" x="64" y="74.77" fill="#8ecd00" pointer-events="all" rx="10.8" ry="10.8" style="fill:light-dark(#8ecd00,#8ecd00)"/><rect width="85" height="30" y="113" fill="#8ecd00" pointer-events="all" rx="15" ry="15" style="fill:light-dark(#8ecd00,#8ecd00)" transform="rotate(-90 42.5 128)"/><rect width="85" height="30" x="171" y="113" fill="#8ecd00" pointer-events="all" rx="15" ry="15" style="fill:light-dark(#8ecd00,#8ecd00)" transform="rotate(-90 213.5 128)"/><circle cx="153" cy="50.27" r="6.5" fill="#242938" pointer-events="all" style="fill:light-dark(#242938,#242938)"/><rect width="60" height="30" x="71" y="195.77" fill="#8ecd00" pointer-events="all" rx="15" ry="15" style="fill:light-dark(#8ecd00,#8ecd00)" transform="rotate(-90 101 210.77)"/><rect width="60" height="30" x="123" y="195.77" fill="#8ecd00" pointer-events="all" rx="15" ry="15" style="fill:light-dark(#8ecd00,#8ecd00)" transform="rotate(-90 153 210.77)"/><rect width="26" height="5" x="149.56" y="21.5" fill="#8ecd00" pointer-events="all" rx="2.5" ry="2.5" style="fill:light-dark(#8ecd00,#8ecd00)" transform="rotate(-55 162.56 24)"/><rect width="26" height="5" x="81" y="20.5" fill="#8ecd00" pointer-events="all" rx="2.5" ry="2.5" style="fill:light-dark(#8ecd00,#8ecd00)" transform="rotate(60 94 23)"/><path fill="#242938" d="M64 75.77h128v8H64z" pointer-events="all" style="fill:light-dark(#242938,#242938)"/><circle cx="101" cy="50.27" r="6.5" fill="#242938" pointer-events="all" style="fill:light-dark(#242938,#242938)"/></svg>