<svg xmlns="http://www.w3.org/2000/svg" xmlns:xlink="http://www.w3.org/1999/xlink" width="256" height="256" style="background:0 0;background-color:transparent;color-scheme:light dark" viewBox="-0.5 -0.5 256 256"><defs><linearGradient id="a"><stop offset="0" style="stop-color:#fff;stop-opacity:1"/><stop offset=".5" style="stop-color:#b2b2b2;stop-opacity:1"/><stop offset="1" style="stop-color:#fff;stop-opacity:1"/></linearGradient><linearGradient xlink:href="#a" id="b" x1="127.5" x2="127.5" y1="1.5" y2="253.5" gradientUnits="userSpaceOnUse"/></defs><rect width="256" height="256" x="-.5" y="-.5" fill="#f4f2ed" pointer-events="all" rx="58.88" ry="58.88" style="display:inline;fill:#d6d6d6;fill-opacity:1"/><rect width="252" height="252" x="1.5" y="1.5" fill="#f4f2ed" pointer-events="all" rx="57.96" ry="57.96" style="display:inline;fill:url(#b);stroke-width:.984375;fill-rule:nonzero"/><path d="m92.051 175.67 26.984 44.186c13.7 20.24 43.592 7.84 33.336-15.533l-7.101-11.858 45.185-19.885c94.41-52.876 13.61-175.11-82.975-136.758L46.99 62.624C-6.547 90.457 36.173 171.056 99.103 146.1l50.354-22.091c18.221-9.594 6.669-41.07-18.842-32.198l-50.503 22.061c-10.095 3.106-27.165-9.123-14.25-19.438l59.387-26.354c57.241-17.848 93.237 44.86 45.197 73.101z" style="display:inline;opacity:1;fill:#fff;fill-opacity:1;stroke-width:.313841"/><path d="m92.051 175.67 26.984 44.186c16.443 17.258 39.836 1.877 31.488-14.34l-9.216-14.821 47.717-21.096C284.69 111.803 193.459.94 107.6 36L46.99 62.624C-6.547 90.457 35.458 167.836 98.388 142.88l49.4-21.615c17.377-9.594 4.825-35.2-17.65-28.859l-50.443 22.3c-13.967 5.03-30.112-12.752-14.907-23.373l59.388-26.116c57.24-17.849 95.322 48.734 46.27 75.963Z" style="display:inline;opacity:1;fill:#383838;fill-opacity:1;stroke-width:.313841"/></svg>