<svg xmlns="http://www.w3.org/2000/svg" width="256" height="256" viewBox="0 0 67.733 67.733"><g transform="translate(-11.91 -7.684)"><path d="M45.777 7.684a33.867 33.867 0 0 0-33.866 33.867 33.867 33.867 0 0 0 24.04 32.407c.75.085 1.805-.82 1.81-1.581V61.083c.06-1.114.54-3.341 2.075-4.509 3.41-1.851 8.83-1.888 12.343-.145 1.141.594 2.186 2.421 2.371 4.448v11.654c.217 1.035 1.07 1.26 1.641 1.243A33.867 33.867 0 0 0 79.644 41.55 33.867 33.867 0 0 0 45.777 7.684Z" style="display:inline;stroke-width:.195589;paint-order:stroke fill markers;fill:#fff;fill-opacity:1"/><path d="M39.836 56.574c-9.463-1.087-14.546-5.734-15.247-13.94-1.06-7.592 2.746-17.653 21.056-18.588 14.224.058 22.802 7.058 22.019 17.226-.34 9.162-5.561 14.347-15.484 15.157Z" style="fill:#000;fill-opacity:1;stroke-width:.343958"/><path d="M64.137 30.595c1.126-1.997.96-6.099-.19-8.994-3.314.06-6.825 1.568-9.223 3.596zm-36.107.048c-1.18-2.783-.973-5.823.234-9.042 2.627-.175 5.802 1.02 9.525 3.584z" style="fill:#000;fill-opacity:1;stroke-width:.343958"/><path d="M56.191 73.774c-.572.017-1.424-.208-1.641-1.243V60.877c-.185-2.027-1.23-3.854-2.37-4.448-3.514-1.743-8.934-1.706-12.344.145-1.536 1.168-2.016 3.395-2.074 4.509v11.294c-.006.761-1.06 1.666-1.811 1.58a33.867 33.867 0 0 0 9.826 1.46 33.867 33.867 0 0 0 10.414-1.643z" style="display:inline;fill:#000;stroke-width:.343934;fill-opacity:1"/><path d="M37.762 61.083c-3.808 1.3-6.869.758-8.77-1.546-1.352-2.137-3.413-5.334-7.11-4.943-.812.086-.996.746-.522 1.105 1.616 1.225 3.627 2.593 5.17 6.465 1.285 2.171 5.071 4.825 11.232 3.566 1.251-1.432 1.008-3.433 0-4.647z" style="display:inline;fill:#000;fill-opacity:1;stroke-width:.343958"/><ellipse cx="36.753" cy="62.683" rx=".753" ry=".535" style="fill:#fff;fill-opacity:1;stroke-width:.343958"/><ellipse cx="34.206" cy="62.984" rx=".753" ry=".535" style="fill:#fff;fill-opacity:1;stroke-width:.343958"/><ellipse cx="43.532" cy="54.856" rx=".753" ry=".535" style="fill:#fff;fill-opacity:1;stroke-width:.343958" transform="rotate(11.744)"/><ellipse cx="62.045" cy="27.282" rx=".753" ry=".535" style="fill:#fff;fill-opacity:1;stroke-width:.343958" transform="rotate(40.819)"/><ellipse cx="63.683" cy="14.19" rx=".753" ry=".535" style="fill:#fff;fill-opacity:1;stroke-width:.343958" transform="rotate(52.604)"/><ellipse cx="61.401" cy="14.16" rx=".678" ry=".482" style="fill:#fff;fill-opacity:1;stroke-width:.309584" transform="rotate(52.604)"/><ellipse cx="45.587" cy="40.834" rx=".541" ry=".385" style="fill:#fff;fill-opacity:1;stroke-width:.247121" transform="rotate(24.513)"/></g></svg>