<svg xmlns="http://www.w3.org/2000/svg" width="256" height="257" style="background:0 0;background-color:transparent;color-scheme:light dark" viewBox="-0.5 -0.5 256 257"><rect width="256" height="256" fill="#ed8332" pointer-events="all" rx="58.88" ry="58.88" style="fill:light-dark(#ed8332,#ed8332)"/><path fill="#fff" d="M70.33 23.5h115.35L241.55 128l-55.87 104.5H70.33L14.46 128Z" pointer-events="all" style="fill:light-dark(#fff,#fff)" transform="rotate(-90 128 128)"/><path fill="#8f2676" d="M69.86 55.5h37.28l20.86 39-20.86 39H69.86L49 94.5Z" pointer-events="all" style="fill:light-dark(#8f2676,#8f2676)" transform="rotate(90 88.5 94.5)"/><path fill="#a2c845" d="M147.36 56h38.28l20.86 39-20.86 39h-38.28L126.5 95Z" pointer-events="all" style="fill:light-dark(#a2c845,#a2c845)" transform="rotate(90 166.5 95)"/><path fill="#ed8332" d="M107 120.48h42l20 38-20 38h-42l-20-38Z" pointer-events="all" style="fill:light-dark(#ed8332,#ed8332)" transform="rotate(90 128 158.48)"/><path fill="#fff" d="M105.5 105.04h13.6v6h-13.6z" pointer-events="all" style="fill:light-dark(#fff,#fff)" transform="rotate(60 112.3 108.04)"/><path fill="#fff" d="m95.2 106 2.99-6h16.01l-2.99 6Z" pointer-events="all" style="fill:light-dark(#fff,#fff)" transform="matrix(-1 0 0 1 209.4 0)"/><path fill="#fff" d="M138 105.04h13.6v6H138z" pointer-events="all" style="fill:light-dark(#fff,#fff)" transform="rotate(-60 144.8 108.04)"/><path fill="#fff" d="m142.9 106 2.99-6h16.01l-2.99 6Z" pointer-events="all" style="fill:light-dark(#fff,#fff)"/><path fill="#505150" d="M90 160.98h76v8H90zM90 145.98h76v8H90z" pointer-events="all" style="fill:light-dark(#505150,#505150)"/><path fill="none" stroke="#ed8332" stroke-miterlimit="10" stroke-width="8" d="M221 119q-35.1-7.52-60 18M162.9 171.48q9 11 23 13M93.2 171.48q-9 11.52-23 13.52M35 119q35-8.52 59 18" pointer-events="stroke" style="stroke:light-dark(#ed8332,#ed8332)"/><path fill="#fff" d="M114.01 86q28 0 28 38t-28 38Z" pointer-events="all" style="fill:light-dark(#fff,#fff)" transform="rotate(270 128.01 124)"/><circle cx="118" cy="125.98" r="3.5" fill="#505150" pointer-events="all" style="fill:light-dark(#505150,#505150)"/><circle cx="137" cy="125.98" r="3.5" fill="#505150" pointer-events="all" style="fill:light-dark(#505150,#505150)"/></svg>