<svg xmlns="http://www.w3.org/2000/svg" width="256" height="256" viewBox="0 0 67.733 67.733"><g transform="translate(-11.91 -7.684)"><circle cx="45.777" cy="41.551" r="33.867" style="display:inline;fill:#0096fa;fill-opacity:1;stroke-width:.195589;paint-order:stroke fill markers"/><path d="m36.226 23.143.03 38.883-5.208.002V25.726c1.248-.84 3.014-1.735 5.178-2.583z" style="fill:#fff;fill-opacity:1;stroke-width:.293558;paint-order:stroke fill markers"/><path d="M31.048 61.985s-2.05.687-2.141 1.466c-.091.779.774.733.774.733l4.19-.017-.07-2.462z" style="display:inline;fill:#fff;fill-opacity:1;stroke-width:.306068;paint-order:stroke fill markers"/><path d="M36.257 61.967s2.05.688 2.14 1.467c.092.778-.774.733-.774.733h-4.135l.115-2.479z" style="fill:#fff;fill-opacity:1;stroke-width:.306068;paint-order:stroke fill markers"/><path d="M31.228 29.36c-2.025 1.662-4.272 3.715-5.426 5.777 0 0 .637 1.661 0 2.302-.637.64-1.095-.08-1.095-.08l-2.796-4.35c2.7-2.774 5.869-5.284 9.26-7.364zM36.01 23.229c18.267-7.283 34.065 1.96 33.9 16.412-.938 15.455-19.633 20.715-33.825 14.64Z" style="opacity:1;fill:#fff;fill-opacity:1;stroke-width:.293558;paint-order:normal"/><path d="M36.226 26.786c12.619-7.22 26.846-2.534 27.076 11.645.285 14.231-13.684 18.51-27.055 12.914Z" style="opacity:1;fill:#0096fa;fill-opacity:1;stroke-width:.293558;paint-order:normal"/></g></svg>