<svg xmlns="http://www.w3.org/2000/svg" xmlns:xlink="http://www.w3.org/1999/xlink" width="256" height="256" viewBox="0 0 67.733 67.733"><defs><linearGradient id="a"><stop offset=".283" style="stop-color:#2dac91;stop-opacity:1"/><stop offset=".549" style="stop-color:#227d80;stop-opacity:1"/></linearGradient><linearGradient xlink:href="#a" id="b" x1="16.847" x2="75.456" y1="13.114" y2="70.55" gradientUnits="userSpaceOnUse"/></defs><g transform="translate(-11.91 -7.684)"><circle cx="45.777" cy="41.551" r="33.867" style="display:inline;fill:#165a6d;fill-opacity:1;stroke-width:.195589;paint-order:stroke fill markers"/><circle cx="45.777" cy="41.551" r="30.427" style="display:inline;fill:url(#b);fill-opacity:1;stroke-width:.175723;paint-order:stroke fill markers"/><path d="m73.95 30.055-22.817-7.98-16.38 47.836c25.05 9.51 49.136-14.947 39.197-39.856zM47.847 20.878 39.29 17.83l-.924 2.362L42.61 21.7l-2.84 8.318-4.005-1.506-1.78 4.483 4.244 1.678-2.772 8.214-4.108-1.506-1.609 4.416 4.142 1.54-2.978 8.489-3.902-1.61-1.574 4.45 3.97 1.507-1.961 5.657a30.79 30.79 0 0 0 4.04 2.58z" style="display:inline;opacity:1;fill:#fff;fill-opacity:1;stroke-width:.264583;paint-order:stroke fill markers"/><path d="m21.548 59.956 4.962 1.898-.929 2.455c-1.585-1.427-2.735-2.662-4.033-4.353z" style="opacity:1;fill:#fff;fill-opacity:1;stroke-width:.343958;stroke-dasharray:none;paint-order:stroke fill markers"/><path d="M37.858 7.031h7.044v4.689h-7.044zM37.689 20.573h7.044v4.689h-7.044zM37.504 34.192h7.044v4.689h-7.044z" style="fill:#fff;fill-opacity:1;stroke-width:.361998;stroke-dasharray:none;paint-order:stroke fill markers" transform="matrix(.93328 .35915 -.30951 .9509 0 0)"/></g></svg>
