<svg xmlns="http://www.w3.org/2000/svg" width="256" height="256" style="background:0 0;background-color:transparent;color-scheme:light dark" viewBox="-0.5 -0.5 256 256"><path d="M58.88 0C26.262 0 0 26.261 0 58.88v138.24c0 10.639 2.794 20.602 7.691 29.198 81.378-22.52 161.736-22.443 240.618 0 4.897-8.596 7.691-18.56 7.691-29.199V58.881C256 26.26 229.739 0 197.12 0Z" style="fill:#373b3a"/><path d="M248.309 226.318c-57.806-27.127-185-26.266-240.618 0C17.808 244.076 36.901 256 58.881 256h138.238c21.98 0 41.073-11.924 51.19-29.682z" style="opacity:1;fill:#dcdcdc;fill-opacity:1;stroke-width:1.3"/><text xml:space="preserve" x="65.06" y="242.607" style="font-style:normal;font-variant:normal;font-weight:700;font-stretch:normal;font-size:26.6667px;line-height:0;font-family:&quot;Noto Sans JP&quot;;-inkscape-font-specification:&quot;Noto Sans JP Bold&quot;;letter-spacing:0;writing-mode:lr-tb;direction:ltr;fill:#333;fill-opacity:1;stroke-width:1.3"><tspan x="65.06" y="242.607">CONSOLE</tspan></text><path d="M37.28 49.5v21.729h26.075v9.813H37.281v24.112c1.269 5.022 12.64 6.75 25.934 7.85v9.533h-5.607v39.393c3.951 8.51 35.188 8.458 40.093 0v-15.842c-7.747-8.687-24.413-6.597-31.261-5.046l-1.402-7.85c15.231-3.193 37.399-1.477 40.233 11.074v18.505c-.3 4.702-3.096 8.694-8.832 10.934-8.428 3.238-27.646 3.585-37.43 0-4.769-1.717-9.34-6.706-9.252-10.654v-41.075c-9.952-2.073-19.985-4.046-22.85-15.14V49.64Z" style="display:inline;opacity:1;fill:#dcdcdc;fill-opacity:1;stroke-width:1.3" transform="translate(0 -2)"/><path d="M65.669 89.523v20.678c2.368 16.54 58.893 16.915 61.822 0l.009-20.669c-2.526-16.428-59.025-16.921-61.831-.009Z" style="opacity:1;fill:#dcdcdc;fill-opacity:1;stroke-width:1.3" transform="translate(0 -2)"/><path d="M73.664 91.718v16.653c5.674 8.575 41.349 7.804 45.201 0V91.519c-4.647-8.324-40.532-7.977-45.201.199z" style="display:inline;opacity:1;fill:#373b3a;fill-opacity:1;stroke-width:1.3" transform="translate(0 -2)"/><path d="M133.338 77.443v32.316c2.959 17.687 51.268 17.967 54.718 0V77.443h-9.12v31.225c-2.048 8.318-35.055 8.598-36.776 0l-.012-31.225zM201.86 122.747h-8.832V90.505c.841-9.954 19.299-15.538 41.705-11.916L232 86.649c-10.631-3.668-29.136-.654-30.28 5.047zM111.594 143.098v20.677c2.368 16.54 58.894 16.915 61.822 0l.01-20.669c-2.527-16.428-59.025-16.921-61.832-.009z" style="opacity:1;fill:#dcdcdc;fill-opacity:1;stroke-width:1.3" transform="translate(0 -2)"/><path d="M119.589 145.292v16.653c5.675 8.575 41.35 7.804 45.202 0v-16.851c-4.647-8.324-40.532-7.978-45.202.198z" style="display:inline;opacity:1;fill:#373b3a;fill-opacity:1;stroke-width:1.3" transform="translate(0 -2)"/><path d="M186.37 130.873h-8.524v7.533c.106 2.904 7.6 10.293 16.356 13.68-10.31 5.782-15.795 11.697-16.455 17.744v6.245h8.624v-5.155c.248-3.783 6.823-10.078 19.726-14.572 11.168 4.395 19.297 10.524 19.627 14.968v4.759h8.327v-6.345c.152-1.644-2.389-10.713-16.753-17.644 7.21-3.189 15.437-7.1 17.05-14.77v-6.245h-8.723v5.353c-.744 3.448-10.04 8.202-19.528 11.3-9.972-2.976-18.954-7.702-19.627-11.498z" style="opacity:1;fill:#dcdcdc;fill-opacity:1;stroke-width:1.3" transform="translate(0 -2)"/></svg>