<svg xmlns="http://www.w3.org/2000/svg" width="256" height="256" style="background:0 0;background-color:transparent;color-scheme:light dark" viewBox="-0.5 -0.5 256 256"><rect width="256" height="256" x="-.5" y="-.5" pointer-events="all" rx="58.88" ry="58.88" style="fill:#b8b8b8;fill-opacity:1"/><rect width="250" height="250" x="2.5" y="2.5" pointer-events="all" rx="57.5" ry="57.5" style="fill:#f4f2ed;fill-opacity:1;stroke-width:.976562"/><g style="fill:#000;fill-opacity:1"><path d="m63.29 71.52 46.86 46.994 8.49-8.354-47.162-46.843ZM2.56 10.833l46.86 46.994 8.49-8.353L10.747 2.63ZM49.495 63.23 2.5 110.09l8.354 8.49 46.843-47.162ZM110.297 2.5 63.302 49.36l8.354 8.49L118.5 10.687Z" style="fill:#000;fill-opacity:1;stroke-width:1.3" transform="matrix(.80056 0 0 .80056 30.499 30.499)"/><path d="m211.446 2.866-74.422.182v115.1h10.763V95.892h63.659c54.627-7.498 54.386-85.893 0-93.027zm-63.842 10.213 63.113.002c41.438 8.327 41.672 62.516 0 72.05h-63.113z" style="display:inline;fill:#000;stroke-width:1.3;fill-opacity:1" transform="matrix(.80056 0 0 .80056 30.499 30.499)"/><path d="M40.274 141.282a37.5 37.5 0 0 0-27.631 12.147v50.707a37.5 37.5 0 0 0 27.63 12.146 37.5 37.5 0 0 0 37.5-37.5 37.5 37.5 0 0 0-37.5-37.5zm.008 10.254a27.254 27.254 0 0 1 27.254 27.254 27.254 27.254 0 0 1-27.254 27.254 27.254 27.254 0 0 1-27.254-27.254 27.254 27.254 0 0 1 27.254-27.254zm-27.639 52.6a37.5 37.5 0 0 1-9.723-22.043v58.67h9.723zm0 0v-50.707A37.5 37.5 0 0 0 2.92 175.47v6.622a37.5 37.5 0 0 0 9.723 22.043zM2.92 175.47a37.5 37.5 0 0 1 9.723-22.042v-9.74H2.92Z" style="display:inline;fill:#000;stroke-width:1.20952;fill-opacity:1" transform="matrix(.80056 0 0 .80056 30.499 30.499)"/><path d="M125.274 141.366c-20.71 0-37.5 16.79-37.5 37.5s16.79 37.5 37.5 37.5a37.5 37.5 0 0 0 34.17-22.05l-9.668-2.483a27.5 27.5 0 0 1-24.252 14.533c-13.092-.029-24.348-9.282-26.908-22.121-.033-3.32-.067-7.001-.112-10.496-.656 3.621-.113 10.536.112 10.496h53.877l-.008-10.498h-53.98c2.46-12.983 13.805-22.381 27.019-22.381 13.192.028 24.505 9.42 26.96 22.38-.318 3.484-.182 7.005.009 10.499v.002l9.89.012a37.5 37.5 0 0 0 .391-5.393c0-20.71-16.79-37.5-37.5-37.5z" style="display:inline;fill:#000;stroke-width:1.29139;fill-opacity:1" transform="matrix(.80056 0 0 .80056 30.499 30.499)"/><path d="M185.899 149.866v-6h-10.25v70.375h10.125v-45.125c6.416-25.917 42.958-25.292 48.875 0v45h10v-43.75c-1.6-21.523-31.374-43.987-58.75-20.5z" style="fill:#000;fill-opacity:1;stroke-width:1.3" transform="matrix(.80056 0 0 .80056 30.499 30.499)"/></g></svg>